<?xml version="1.0" encoding="UTF-8" standalone="no"?>
<svg
   xmlns:dc="http://purl.org/dc/elements/1.1/"
   xmlns:cc="http://creativecommons.org/ns#"
   xmlns:rdf="http://www.w3.org/1999/02/22-rdf-syntax-ns#"
   xmlns:svg="http://www.w3.org/2000/svg"
   xmlns="http://www.w3.org/2000/svg"
   xmlns:sodipodi="http://sodipodi.sourceforge.net/DTD/sodipodi-0.dtd"
   xmlns:inkscape="http://www.inkscape.org/namespaces/inkscape"
   inkscape:export-ydpi="250"
   inkscape:export-xdpi="250"
   inkscape:export-filename="C:\Users\INTEL\Desktop\cr-logo\cr-logo-250dpi.png"
   width="297mm"
   height="297mm"
   viewBox="0 0 297 297"
   version="1.1"
   id="svg1429"
   inkscape:version="1.0 (4035a4fb49, 2020-05-01)"
   sodipodi:docname="logo.svg">
  <defs
     id="defs1423">
    <clipPath
       id="clip1">
      <path
         d="M 103,132 H 331.85156 V 309 H 103 Z m 0,0"
         id="path2-2" />
    </clipPath>
    <filter
       height="1.0026391"
       y="-0.0013195511"
       width="1.002562"
       x="-0.0012810198"
       id="filter898"
       style="color-interpolation-filters:sRGB"
       inkscape:collect="always">
      <feGaussianBlur
         id="feGaussianBlur900"
         stdDeviation="0.13482199"
         inkscape:collect="always" />
    </filter>
  </defs>
  <sodipodi:namedview
     id="base"
     pagecolor="#ffffff"
     bordercolor="#666666"
     borderopacity="1.0"
     inkscape:pageopacity="0.0"
     inkscape:pageshadow="2"
     inkscape:zoom="0.49497475"
     inkscape:cx="792.07503"
     inkscape:cy="1122.4898"
     inkscape:document-units="mm"
     inkscape:current-layer="g885"
     inkscape:document-rotation="0"
     showgrid="false"
     inkscape:window-width="1920"
     inkscape:window-height="1001"
     inkscape:window-x="-9"
     inkscape:window-y="-9"
     inkscape:window-maximized="1" />
  <metadata
     id="metadata1426">
    <rdf:RDF>
      <cc:Work
         rdf:about="">
        <dc:format>image/svg+xml</dc:format>
        <dc:type
           rdf:resource="http://purl.org/dc/dcmitype/StillImage" />
        <dc:title />
      </cc:Work>
    </rdf:RDF>
  </metadata>
  <g
     style="filter:url(#filter898)"
     inkscape:label="Layer 1"
     inkscape:groupmode="layer"
     id="layer1">
    <g
       style="fill:#ff0000"
       transform="matrix(0.44498675,0,0,0.53937909,80.247046,25.749858)"
       id="g15"
       clip-rule="nonzero"
       clip-path="url(#clip1)" />
    <g
       transform="matrix(0.85323583,0,0,0.85323583,-15.114967,-17.826074)"
       style="fill:#ff0000"
       id="g1370" />
    <path
       id="path1001"
       style="fill:#ffffff;stroke:#00ffff;stroke-width:8.05754;stroke-opacity:0"
       d="M 381.14844,263.31641 C 209.24278,310.16913 89.972242,466.29256 89.96875,644.46875 89.968466,830.04786 203.79628,974.96814 383.98047,1014.5176 l 1.6875,-1.625 c 17.92707,-17.27662 32.57663,-40.31618 47.75781,-75.11721 l 0.89649,-2.05469 C 283.61356,909.17759 170.76374,794.63089 170.76758,640.77734 c 10e-4,-139.25015 90.79871,-262.22397 223.8789,-303.21484 z"
       transform="scale(0.26458333)" />
    <path
       id="path1001-6-3-0"
       style="fill:#ffffff;stroke:#00ffff;stroke-width:3.34505;stroke-opacity:0"
       d="m 420.60156,486.57227 a 168.49608,159.64148 0 0 0 -67.03711,127.45117 168.49608,159.64148 0 0 0 128.8711,155.16015 l 6.18359,-51.58789 a 112.91945,106.98544 0 0 1 -77.70508,-101.64843 112.91945,106.98544 0 0 1 21.03321,-62.18165 z"
       transform="scale(0.26458333)" />
    <g
       transform="translate(-2.6458334)"
       id="g885">
      <path
         transform="matrix(0.44498675,0,0,0.53937908,80.247045,25.749858)"
         style="fill:#ffffff;fill-opacity:1;fill-rule:nonzero;stroke:none"
         d="m 225.94141,134.34766 c 6.26562,-2.30469 13.23046,-2.15235 19.60546,-0.375 9.73047,2.71875 18.39063,8.48046 25.60938,15.4414 -5.89453,1.34375 -11.625,3.86719 -16.04688,8.0625 -5.55859,5.0586 -9.18359,11.85547 -11.71875,18.84375 -5.01562,14.1211 -6.5,29.12891 -8.53515,43.88281 -1.26563,9.23047 -2.4961,18.53907 -5.27735,27.46094 -1.63671,5.44922 -4.3789,10.48047 -7.29296,15.33985 -5.7461,9.49609 -13.40625,17.89843 -22.63672,24.10546 -5.54297,3.70313 -11.59766,6.61329 -17.85157,8.90625 -2.02343,0.77344 -4.125,1.33594 -6.11718,2.19922 3.80859,-0.0234 7.62109,-0.0625 11.42578,-0.1914 2.47656,-0.0586 5.01562,0.17578 7.42187,-0.57422 11.04297,-3.30078 20.70313,-10.26953 28.3711,-18.76172 8.4375,-9.27734 14.77343,-20.33594 19.26172,-32.00391 5.64453,-14.58203 7.17578,-30.29687 11.71875,-45.19922 1.87109,-6.07812 4.14843,-12.15625 7.91796,-17.33984 2.9961,-4.11328 7.10157,-7.60937 12.05079,-9.07422 6.8125,-2.02344 14.34375,-1.23047 20.72265,1.84375 5.69531,2.64063 10.74219,6.66016 14.65625,11.55469 -11.30078,3.46875 -20.52344,12.22266 -25.64844,22.75391 -2.65625,5.02734 -4.10156,10.55078 -5.9414,15.90625 -4.11719,12.70703 -7.9961,25.58984 -14.10938,37.52343 -4.42968,8.76953 -10.1289,17.02735 -17.5625,23.52735 -4.62109,4.13672 -9.89453,7.53125 -15.5625,10.05078 3.79688,0.0312 7.59766,-0.15625 11.39844,-0.24219 2.03906,0.0312 3.75781,-1.17578 5.51563,-2.04297 8.99609,-4.85156 15.93359,-12.73828 21.3125,-21.29297 4.92578,-7.95703 8.93359,-16.46875 12.0664,-25.28125 1.86328,-5.10937 3.63672,-10.25781 5.83203,-15.23437 2.34375,-5.14844 4.97266,-10.31641 9.04688,-14.32422 3.37109,-3.52734 8,-5.90234 12.89844,-6.24219 5.625,-0.41015 11.6914,0.48828 16.22656,4.09375 2.99609,2.36719 5.30469,5.51953 7.14844,8.84375 -5.59766,1.5586 -10.75391,4.57031 -14.85938,8.6875 -6.3125,6.26953 -10.54687,14.23047 -14.41016,22.15625 -4.78125,9.70703 -8.91796,19.79297 -14.84765,28.89063 -4.80078,7.45703 -11.17578,14.19922 -19.32813,17.96093 -6.0625,2.84375 -12.80468,3.92579 -19.46484,3.88282 -6.27344,0.33203 -12.55859,0.0195 -18.83203,0.29687 -24.56722,0.0188 -46.71951,0.01 -68.81635,0.005 0.29182,-8.36466 0.0539,-8.25595 0.25598,-23.71685 3.31823,-1.7656 6.56938,-3.66303 9.71369,-5.71719 5.59961,-3.6582 10.86035,-7.81348 15.55762,-12.60644 3.44531,-3.63282 6.72656,-7.48047 9.32812,-11.77344 3.98047,-6.76953 5.78516,-14.57031 6.63281,-22.3125 2.17969,-20.66797 -1.33593,-41.44531 0.6211,-62.1211 0.69531,-6.95312 2.17578,-13.92968 5.33984,-20.20312 3.60156,-7.03125 9.74219,-12.85156 17.20313,-15.58984"
         id="path13"
         sodipodi:nodetypes="ccccccccccccccccccccccccccccccccccccccccccscccccc" />
      <path
         transform="matrix(0.85323582,0,0,0.85323582,-15.114967,-17.826074)"
         id="path7"
         d="m 191.859,97.150759 c 1.6196,-1.064295 3.21067,-2.190324 4.86896,-3.173133 3.6018,2.607648 7.23621,5.210362 10.45298,8.494614 2.33466,2.47183 4.44522,5.39062 5.61865,8.91194 0.78026,2.34342 1.32419,4.86958 1.2753,7.40809 -0.36874,3.53859 -1.25085,7.06485 -2.96008,10.00586 -1.01249,-1.89894 -1.91498,-3.89172 -3.13324,-5.61781 -3.88294,-5.75609 -9.24084,-9.67496 -14.66188,-12.96169 -4.03981,-2.43726 -8.23037,-4.48189 -12.34148,-6.72901 3.64051,-2.0792 7.34622,-4.000372 10.88079,-6.338861"
         style="fill:#ffffff;fill-opacity:1;fill-rule:nonzero;stroke:none;stroke-width:0.574183" />
      <path
         transform="matrix(0.85323582,0,0,0.85323582,-15.114967,-17.826074)"
         d="m 148.18027,121.69685 c -0.2302,2.40269 -0.0463,4.82623 -0.0606,7.23633 -0.12429,2.22243 0.005,4.44697 0.0293,6.67188 0.0631,3.8201 -0.3344,7.7253 0.52734,11.45898 0.86785,4.14607 3.02256,7.76981 5.69336,10.50586 0.57776,0.64724 1.22495,1.19141 1.8418,1.78125 l 8.29883,6.76367 c 0.63062,-0.4119 1.26784,-0.80918 1.90625,-1.20312 -0.004,-0.002 0.0851,0.0422 0.0801,0.0391 -0.026,-0.0148 -0.0502,-0.0282 -0.0762,-0.043 4.68391,-2.88996 9.55683,-5.33923 14.39843,-7.80664 -3.82386,-1.98784 -7.73569,-3.74973 -11.4414,-6.05859 -2.87044,-1.90141 -5.62835,-4.05066 -8.24414,-6.4336 -3.95017,-3.61514 -7.567,-7.90705 -10.10742,-13.09765 -0.60709,-1.34333 -1.15728,-2.72649 -1.60547,-4.15625 -0.58061,-1.82734 -0.82669,-3.77162 -1.24024,-5.65821 z"
         style="fill:#ffffff;fill-opacity:1;fill-rule:nonzero;stroke:none;stroke-width:0.574183"
         id="path9" />
      <path
         transform="matrix(0.85323582,0,0,0.85323582,-15.114967,-17.826074)"
         sodipodi:nodetypes="ccccccccccccccccc"
         d="m 214.07422,118.79297 c -0.36874,3.53859 -1.24976,7.06485 -2.95899,10.00586 -1.75405,3.62749 -4.21904,6.67363 -6.86132,9.36523 -2.50985,2.59037 -5.25479,4.82101 -8.07227,6.87305 -4.89747,3.6596 -10.33001,6.04786 -15.63086,8.67773 -7.19546,3.667 -14.47166,7.27072 -21.07226,12.38477 -1.81378,1.42046 -4.22907,2.66405 -5.99785,4.18695 l 3.64324,19.96568 c 0.27824,-0.23064 3.78914,-3.69868 4.06925,-3.92316 6.57411,-5.15355 12.97626,-10.40407 20.13301,-14.17478 2.27151,-1.35816 4.61929,-2.50554 6.88672,-3.8711 3.0375,-1.72361 5.9016,-3.84713 8.90039,-5.66211 3.53864,-2.36565 7.18121,-4.60517 10.31445,-7.73632 2.33873,-2.2891 4.38379,-5.13834 5.54297,-8.53125 0.95546,-2.7237 1.28046,-5.71524 1.25196,-8.65625 0.1039,-5.4005 0.0522,-10.80315 0.0664,-16.20118 0.0122,-0.90873 -0.0417,-1.8191 -0.21484,-2.70312 z"
         style="fill:#ffffff;fill-opacity:1;fill-rule:nonzero;stroke:none;stroke-width:0.574183"
         id="path11" />
      <path
         transform="matrix(0.85323582,0,0,0.85323582,-15.114967,-17.826074)"
         id="path17"
         d="m 188.21238,168.28325 c 3.0375,-1.72361 5.90386,-3.84727 8.90062,-5.66225 5.27232,3.61021 10.32463,8.1489 13.60048,14.4359 2.45281,4.66463 3.73219,10.17625 3.83813,15.69034 0.17316,3.3929 -0.25669,6.81297 -1.16122,10.02562 -0.83934,-2.28664 -1.66441,-4.6029 -2.87044,-6.65247 -3.80961,-6.71667 -9.52605,-11.35661 -15.30157,-15.2903 -3.68533,-2.51628 -7.46437,-4.83008 -11.27194,-7.06485 -0.87193,-0.54079 -1.77849,-0.99762 -2.61987,-1.61002 2.27151,-1.35816 4.61838,-2.50641 6.88581,-3.87197"
         style="fill:#ffffff;fill-opacity:1;fill-rule:nonzero;stroke:none;stroke-width:0.574183" />
      <path
         transform="matrix(0.85323582,0,0,0.85323582,-15.114967,-17.826074)"
         id="path45"
         d="m 212.71199,58.962051 c 1.70719,-2.941012 2.59135,-6.467263 2.96008,-10.005861 0.17317,0.884032 0.2241,1.795228 0.21187,2.701484 -0.0142,5.400498 0.0387,10.800996 -0.0652,16.201497 0.0285,2.94348 -0.29539,5.933879 -1.25085,8.657587 -1.15918,3.392905 -3.20455,6.242553 -5.54327,8.52918 -3.13325,3.133625 -6.77784,5.370869 -10.31649,7.736518 -2.99675,1.81745 -5.86312,3.938634 -8.90062,5.664722 -2.26539,1.36309 -4.6143,2.513812 -6.88377,3.869492 -7.15879,3.77319 -14.3787,7.52662 -20.95077,12.68266 -4.42077,3.53859 -8.65004,7.82541 -11.24546,13.5247 -1.63589,3.20771 -2.31428,6.94879 -2.74821,10.64049 -0.18335,-2.07674 -0.0245,-4.17076 -0.13853,-6.25243 -0.11816,-2.7805 0.19965,-5.55607 0.0489,-8.3341 -0.0835,-3.73862 -0.18539,-7.57848 0.78229,-11.17881 0.93712,-3.63244 2.69728,-6.88459 4.82821,-9.64534 2.23483,-2.89656 4.83432,-5.343702 7.57439,-7.492052 6.60263,-5.114048 13.8755,-8.719321 21.073,-12.386328 5.29881,-2.62987 10.73208,-5.017746 15.62956,-8.674873 2.81951,-2.054509 5.56365,-4.284346 8.07147,-6.872238 2.64227,-2.691607 5.10731,-5.741272 6.86339,-9.366298"
         style="fill:#ffffff;fill-opacity:1;fill-rule:nonzero;stroke:none;stroke-width:0.574183" />
      <g
         style="font-style:normal;font-variant:normal;font-weight:normal;font-stretch:normal;font-size:33.786px;line-height:1.25;font-family:'Franklin Gothic Heavy';-inkscape-font-specification:'Franklin Gothic Heavy, ';letter-spacing:0px;fill:#ffffff;stroke-width:0.844649"
         id="text1357"
         transform="scale(1.1860547,0.84313142)"
         aria-label="RADIO">
        <path
           id="path865"
           style="font-style:normal;font-variant:normal;font-weight:normal;font-stretch:normal;font-family:'Franklin Gothic Heavy';-inkscape-font-specification:'Franklin Gothic Heavy, ';fill:#ffffff;stroke-width:0.844649"
           d="m 155.6546,300.31027 h -7.67114 l -3.28292,-8.61147 h -2.17761 v 8.61147 h -6.91227 v -22.5185 h 11.76241 q 3.89331,0 6.03793,1.83118 2.16111,1.81467 2.16111,4.80064 0,1.94666 -0.79186,3.44789 -0.79186,1.48474 -3.20043,2.62304 z m -13.13167,-13.42861 h 2.95298 q 1.30326,0 2.09512,-0.54441 0.79186,-0.5444 0.79186,-1.60021 0,-2.16112 -2.65603,-2.16112 h -3.18393 z" />
        <path
           id="path867"
           style="font-style:normal;font-variant:normal;font-weight:normal;font-stretch:normal;font-family:'Franklin Gothic Heavy';-inkscape-font-specification:'Franklin Gothic Heavy, ';fill:#ffffff;stroke-width:0.844649"
           d="m 171.32682,300.31027 -1.27028,-4.43771 h -6.03793 l -1.35276,4.43771 h -5.609 l 6.96176,-22.5185 h 7.30821 l 7.04424,22.5185 z m -6.13692,-9.35384 h 3.66235 l -1.83117,-6.53284 z" />
        <path
           id="path869"
           style="font-style:normal;font-variant:normal;font-weight:normal;font-stretch:normal;font-family:'Franklin Gothic Heavy';-inkscape-font-specification:'Franklin Gothic Heavy, ';fill:#ffffff;stroke-width:0.844649"
           d="m 180.48269,300.31027 v -22.5185 h 8.71045 q 5.675,0 8.49599,3.3654 2.821,3.36541 2.821,7.78662 0,5.0481 -3.03546,8.21554 -3.01896,3.15094 -7.8526,3.15094 z m 6.91227,-5.18008 h 1.79818 q 1.7157,0 2.88699,-1.6662 1.18779,-1.66621 1.18779,-4.5367 0,-2.45806 -1.05581,-4.23974 -1.03932,-1.78169 -3.01897,-1.78169 h -1.79818 z" />
        <path
           id="path871"
           style="font-style:normal;font-variant:normal;font-weight:normal;font-stretch:normal;font-family:'Franklin Gothic Heavy';-inkscape-font-specification:'Franklin Gothic Heavy, ';fill:#ffffff;stroke-width:0.844649"
           d="m 210.35888,277.79177 v 22.5185 h -6.91227 v -22.5185 z" />
        <path
           id="path873"
           style="font-style:normal;font-variant:normal;font-weight:normal;font-stretch:normal;font-family:'Franklin Gothic Heavy';-inkscape-font-specification:'Franklin Gothic Heavy, ';fill:#ffffff;stroke-width:0.844649"
           d="m 224.00196,300.65671 q -4.75116,0 -7.75363,-3.15094 -2.98597,-3.15094 -2.98597,-8.43 0,-5.04811 2.854,-8.33102 2.87049,-3.29942 7.95159,-3.29942 4.70166,0 7.65464,3.10145 2.96947,3.10145 2.96947,8.28153 0,5.36155 -2.98597,8.59497 -2.98597,3.23343 -7.70413,3.23343 z m -0.033,-5.11409 q 1.74869,0 2.50756,-1.51773 0.77536,-1.53423 0.77536,-5.59251 0,-5.87296 -3.15094,-5.87296 -3.3984,0 -3.3984,6.69782 0,6.28538 3.26642,6.28538 z" />
      </g>
    </g>
    <g
       style="fill:#ffffff"
       transform="translate(-2.6458334)"
       id="g891">
      <path
         d="m 137.77351,177.67193 -0.12441,2.63083 c -0.56272,11.91327 -2.02308,25.33775 -3.86079,35.49306 l -0.40079,2.21544 -1.61562,0.0531 -1.6156,0.0535 v 1.56206 1.56206 h 9.32369 9.32314 v -1.56909 -1.56909 h -1.27918 -1.27918 l -0.19473,-0.96926 c -1.71003,-8.52143 -3.49459,-23.97829 -3.98032,-34.47783 -0.0587,-1.26918 -0.15336,-2.91026 -0.21041,-3.64661 l -0.10276,-1.33813 h -1.99153 z m 2.11863,29.98203 c 0.0352,0.0352 0.43585,2.41318 0.89029,5.2844 0.45472,2.87121 0.79466,5.2529 0.75505,5.2925 -0.0393,0.0393 -0.81358,0.0477 -1.71998,0.0184 l -1.64806,-0.0535 0.8297,-5.30278 c 0.45611,-2.91664 0.85782,-5.27414 0.893,-5.23896 z m -0.0823,15.61899 c -5.79448,0 -7.46702,0.0516 -7.52851,0.23094 -0.0435,0.12684 -0.33794,1.352 -0.65391,2.7228 -0.81335,3.52754 -2.08373,8.1146 -3.15712,11.40066 l -0.91949,2.81528 h -1.46688 -1.46632 v 1.66157 1.66158 h 14.67732 14.67731 v -1.66158 -1.66157 h -0.98279 -0.98332 l -1.04012,-3.2772 c -1.20158,-3.78481 -2.22889,-7.52115 -3.09652,-11.26165 l -0.61012,-2.63083 z m 0.33697,3.48055 c 0.0625,-0.0627 0.31858,1.05196 1.64914,7.10662 0.82249,3.74133 1.4595,6.83785 1.41602,6.88161 -0.0438,0.0435 -1.44874,0.0567 -3.12196,0.0287 l -3.04245,-0.0509 1.53556,-6.92325 c 0.84436,-3.8078 1.54316,-6.9648 1.55341,-7.01575 0.003,-0.0136 0.006,-0.0228 0.0102,-0.0271 z m -14.44203,18.67388 -0.3824,0.87676 c -3.88423,8.90413 -7.63222,14.79925 -12.21901,19.21961 l -1.40899,1.35761 v 0.9963 0.9963 h 8.21541 c 4.51868,0 8.21516,-0.0624 8.21489,-0.13846 -5.6e-4,-0.0761 -0.37335,-1.03815 -0.82863,-2.13756 l -0.82702,-1.99963 0.66097,-1.8774 c 0.36361,-1.03295 1.11316,-3.19982 1.66591,-4.81598 2.99445,-8.75268 7.86226,-12.63026 13.57229,-10.81165 4.40845,1.40405 6.67242,4.52975 9.28636,12.81993 1.64303,5.211 1.57285,4.47722 0.63932,6.70042 -0.4154,0.98947 -0.79792,1.90308 -0.85025,2.02992 -0.0753,0.18249 1.62434,0.23041 8.14023,0.23041 h 8.23488 v -1.08716 c 0,-1.02964 -0.0352,-1.11548 -0.66905,-1.61561 -3.69979,-2.91829 -9.19868,-11.24096 -12.45538,-18.85129 l -0.8097,-1.89252 h -14.08993 z"
         id="path0-6-4"
         style="stroke-width:0.27693;fill:#ffffff" />
      <g
         style="font-style:normal;font-variant:normal;font-weight:normal;font-stretch:normal;font-size:50.2617px;line-height:1.25;font-family:'Franklin Gothic Medium';-inkscape-font-specification:'Franklin Gothic Medium, ';letter-spacing:0px;fill:#ffffff;stroke-width:1.25654"
         id="text1353"
         transform="scale(1.0241971,0.97637457)"
         aria-label="MPUS">
        <path
           id="path856"
           style="fill:#ffffff;stroke-width:1.25654"
           d="m 181.31551,235.48563 h -6.16 v -29.32751 l -9.27682,29.32751 h -3.1659 l -9.3259,-29.32751 v 29.32751 h -4.93291 v -33.49962 h 9.44861 l 7.01897,21.57228 6.89626,-21.57228 h 9.49769 z" />
        <path
           id="path858"
           style="fill:#ffffff;stroke-width:1.25654"
           d="m 194.7399,235.48563 h -6.03729 v -33.49962 h 13.71889 q 5.8655,0 8.68781,2.96956 2.84686,2.94502 2.84686,6.96988 0,4.58933 -3.06773,7.43618 -3.06773,2.84686 -7.77977,2.84686 h -8.36877 z m 0,-18.45547 h 7.14168 q 2.79777,0 4.27028,-1.37434 1.47251,-1.37435 1.47251,-3.65674 0,-2.06151 -1.37434,-3.53403 -1.3498,-1.47251 -4.90837,-1.47251 h -6.60176 z" />
        <path
           id="path860"
           style="fill:#ffffff;stroke-width:1.25654"
           d="m 241.83571,201.98601 v 21.5232 q 0,4.36844 -0.98168,6.72446 -0.98167,2.35602 -3.80398,4.07395 -2.79777,1.69338 -6.84718,1.69338 -4.09848,0 -6.749,-1.47251 -2.62598,-1.47251 -3.77945,-4.02486 -1.15347,-2.57689 -1.15347,-6.55267 v -21.96495 h 6.16001 v 21.5232 q 0,4.41753 1.84064,5.81641 1.86518,1.37435 4.31936,1.37435 2.82231,0 4.5157,-1.47251 1.69339,-1.49706 1.69339,-5.71825 v -21.5232 z" />
        <path
           id="path862"
           style="fill:#ffffff;stroke-width:1.25654"
           d="m 245.27156,227.41136 5.8655,-1.25164 q 1.0553,4.982 8.09881,4.982 3.21498,0 4.93291,-1.27618 1.74247,-1.27617 1.74247,-3.16589 0,-1.37435 -0.78533,-2.52781 -0.78534,-1.17801 -3.36224,-1.84064 l -6.40542,-1.66885 q -3.28861,-0.85896 -4.85928,-1.9388 -1.57068,-1.10439 -2.52781,-3.09228 -0.93259,-1.98789 -0.93259,-4.24574 0,-4.49115 3.33769,-7.19076 3.33769,-2.72414 8.54056,-2.72414 4.31936,0 7.70614,1.88972 3.41131,1.88972 4.3439,5.35012 l -5.74279,1.42343 q -1.32526,-3.80399 -6.18454,-3.80399 -2.82231,0 -4.31937,1.17801 -1.47251,1.17801 -1.47251,2.99411 0,2.87139 4.66295,4.02486 l 5.69371,1.42343 q 5.17833,1.30071 6.94534,3.85307 1.76702,2.52781 1.76702,5.59554 0,4.93291 -3.73036,7.77976 -3.70582,2.82231 -9.62041,2.82231 -4.98199,0 -8.73689,-2.08605 -3.73037,-2.08606 -4.95746,-6.50359 z" />
      </g>
      <circle
         style="fill:#ffffff;stroke:#00ffff;stroke-width:1.33903;stroke-opacity:0"
         id="path1359"
         cx="140.47331"
         cy="161.94948"
         r="12.085461" />
    </g>
    <g
       transform="translate(-2.6458334)"
       style="fill:#ffffff"
       id="g896">
      <path
         id="path1001-1"
         style="fill:#ffffff;stroke:#00ffff;stroke-width:5.48489;stroke-opacity:0"
         d="m 401.4043,376.63086 c -98.72082,42.4486 -162.69362,139.59253 -162.69532,247.05273 -0.005,132.8526 85.38413,239.70415 214.9336,259.8711 l 17.66211,-60.84766 C 368.03292,805.63887 293.70514,726.7886 293.70703,621.17773 c -10e-4,-80.9371 45.25133,-155.08239 117.23438,-192.08593 z"
         transform="matrix(0.26458333,0,0,0.26458333,2.6458334,0)" />
      <g
         style="font-size:21.5972px;line-height:1.25;font-family:'Franklin Gothic Heavy';-inkscape-font-specification:'Franklin Gothic Heavy, ';letter-spacing:0px;fill:#ffffff;stroke-width:0.539929"
         id="text1363"
         transform="scale(1.4333723,0.69765546)"
         aria-label="IISER-K">
        <path
           id="path876"
           style="fill:#ffffff;stroke-width:0.539929"
           d="m 125.74853,371.18955 v 14.39462 h -4.41857 v -14.39462 z" />
        <path
           id="path878"
           style="fill:#ffffff;stroke-width:0.539929"
           d="m 132.66638,371.18955 v 14.39462 h -4.41857 v -14.39462 z" />
        <path
           id="path880"
           style="fill:#ffffff;stroke-width:0.539929"
           d="m 133.67875,381.41869 4.1022,-0.73818 q 0.51673,1.74001 2.65747,1.74001 1.66619,0 1.66619,-0.88583 0,-0.464 -0.39018,-0.71709 -0.37964,-0.26364 -1.37092,-0.464 -3.78584,-0.72764 -4.86148,-1.8982 -1.07564,-1.17055 -1.07564,-2.75237 0,-2.03529 1.53964,-3.38511 1.55019,-1.34983 4.45021,-1.34983 4.39747,0 5.81057,3.53275 l -3.65929,1.10728 q -0.56946,-1.44474 -2.30947,-1.44474 -1.44473,0 -1.44473,0.89637 0,0.40073 0.32691,0.62219 0.32691,0.22145 1.26546,0.42182 2.58365,0.54836 3.66984,0.97018 1.08619,0.42182 1.81383,1.44474 0.72764,1.01237 0.72764,2.39383 0,2.18292 -1.77165,3.54329 -1.77165,1.34982 -4.65057,1.34982 -5.26221,0 -6.49603,-4.38693 z" />
        <path
           id="path882"
           style="fill:#ffffff;stroke-width:0.539929"
           d="m 159.11451,382.14633 v 3.43784 h -10.83023 v -14.39462 h 10.83023 v 3.32183 h -6.49603 v 2.08801 h 5.25166 v 3.19529 h -5.25166 v 2.35165 z" />
        <path
           id="path884"
           style="fill:#ffffff;stroke-width:0.539929"
           d="m 173.66732,385.58417 h -4.90366 l -2.09856,-5.50476 h -1.39201 v 5.50476 h -4.41857 v -14.39462 h 7.51895 q 2.48874,0 3.85966,1.17055 1.38146,1.16001 1.38146,3.06874 0,1.24437 -0.50618,2.20401 -0.50619,0.9491 -2.04583,1.67674 z m -8.39423,-8.58405 h 1.88765 q 0.83309,0 1.33928,-0.348 0.50618,-0.348 0.50618,-1.02291 0,-1.38146 -1.69782,-1.38146 h -2.03529 z" />
        <path
           id="path886"
           style="fill:#ffffff;stroke-width:0.539929"
           d="m 180.13171,378.48704 v 3.31129 h -5.34657 v -3.31129 z" />
        <path
           id="path888"
           style="fill:#ffffff;stroke-width:0.539929"
           d="m 194.67397,385.58417 h -4.84039 l -2.48874,-5.44148 -1.48692,2.11964 v 3.32184 h -4.16547 v -14.39462 h 4.16547 v 5.94767 l 3.97566,-5.94767 h 3.96511 l -3.6382,5.26221 z" />
      </g>
    </g>
  </g>
</svg>
