<?xml version="1.0" encoding="UTF-8" standalone="no"?>
<svg
   xmlns:dc="http://purl.org/dc/elements/1.1/"
   xmlns:cc="http://creativecommons.org/ns#"
   xmlns:rdf="http://www.w3.org/1999/02/22-rdf-syntax-ns#"
   xmlns:svg="http://www.w3.org/2000/svg"
   xmlns="http://www.w3.org/2000/svg"
   xmlns:sodipodi="http://sodipodi.sourceforge.net/DTD/sodipodi-0.dtd"
   xmlns:inkscape="http://www.inkscape.org/namespaces/inkscape"
   enable-background="new 0 0 56.693 56.693"
   height="67"
   id="Layer_1"
   version="1.1"
   viewBox="0 0 66.999999 66.999999"
   width="67"
   xml:space="preserve"
   sodipodi:docname="facebook.svg"
   inkscape:version="1.0 (4035a4fb49, 2020-05-01)"><metadata
     id="metadata9"><rdf:RDF><cc:Work
         rdf:about=""><dc:format>image/svg+xml</dc:format><dc:type
           rdf:resource="http://purl.org/dc/dcmitype/StillImage" /><dc:title /></cc:Work></rdf:RDF></metadata><defs
     id="defs7" /><sodipodi:namedview
     inkscape:document-rotation="0"
     pagecolor="#ffffff"
     bordercolor="#666666"
     borderopacity="1"
     objecttolerance="10"
     gridtolerance="10"
     guidetolerance="10"
     inkscape:pageopacity="0"
     inkscape:pageshadow="2"
     inkscape:window-width="1920"
     inkscape:window-height="1001"
     id="namedview5"
     showgrid="false"
     inkscape:zoom="7.6376271"
     inkscape:cx="16.733635"
     inkscape:cy="42.235534"
     inkscape:window-x="-9"
     inkscape:window-y="-9"
     inkscape:window-maximized="1"
     inkscape:current-layer="Layer_1" /><path
     d="m 33.523032,1.4723477 c -18.157062,0 -32.87629935,14.4611773 -32.87629935,32.2940553 0,17.835498 14.71923735,32.291431 32.87629935,32.291431 18.157063,0 32.876299,-14.455933 32.876299,-32.291431 0,-17.832878 -14.720571,-32.2940553 -32.876299,-32.2940553 z m 8.700705,32.1589773 h -5.692774 c 0,8.936109 0,19.942973 0,19.942973 h -8.437694 c 0,0 0,-10.894079 0,-19.942973 h -4.013243 v -7.041088 h 4.013243 V 22.02776 c 0,-3.265469 1.578063,-8.363013 8.516464,-8.363013 l 6.248164,0.0236 v 6.839125 c 0,0 -3.79963,0 -4.536595,0 -0.740966,0 -1.789003,0.363268 -1.789003,1.916005 v 4.148065 h 6.432405 z"
     id="path2"
     style="stroke-width:1.3232;fill:#ffffff" /></svg>
