<?xml version="1.0" encoding="UTF-8" standalone="no"?>
<svg
   xmlns:dc="http://purl.org/dc/elements/1.1/"
   xmlns:cc="http://creativecommons.org/ns#"
   xmlns:rdf="http://www.w3.org/1999/02/22-rdf-syntax-ns#"
   xmlns:svg="http://www.w3.org/2000/svg"
   xmlns="http://www.w3.org/2000/svg"
   xmlns:sodipodi="http://sodipodi.sourceforge.net/DTD/sodipodi-0.dtd"
   xmlns:inkscape="http://www.inkscape.org/namespaces/inkscape"
   height="67px"
   id="Layer_1"
   style="enable-background:new 0 0 67 67;"
   version="1.1"
   viewBox="0 0 67 67"
   width="67px"
   xml:space="preserve"
   sodipodi:docname="linkedin.svg"
   inkscape:version="1.0 (4035a4fb49, 2020-05-01)"><metadata
     id="metadata9"><rdf:RDF><cc:Work
         rdf:about=""><dc:format>image/svg+xml</dc:format><dc:type
           rdf:resource="http://purl.org/dc/dcmitype/StillImage" /><dc:title /></cc:Work></rdf:RDF></metadata><defs
     id="defs7" /><sodipodi:namedview
     inkscape:document-rotation="0"
     pagecolor="#ffffff"
     bordercolor="#666666"
     borderopacity="1"
     objecttolerance="10"
     gridtolerance="10"
     guidetolerance="10"
     inkscape:pageopacity="0"
     inkscape:pageshadow="2"
     inkscape:window-width="1920"
     inkscape:window-height="1001"
     id="namedview5"
     showgrid="false"
     inkscape:zoom="4.5698095"
     inkscape:cx="41.875508"
     inkscape:cy="73.024751"
     inkscape:window-x="-9"
     inkscape:window-y="-9"
     inkscape:window-maximized="1"
     inkscape:current-layer="Layer_1" /><path
     d="M 51.995917,49.03989 V 36.217296 c 0,-6.870028 -3.667664,-10.066918 -8.557154,-10.066918 -3.945749,0 -5.713893,2.171039 -6.699235,3.69394 v -3.168424 h -7.433864 c 0.09853,2.098781 0,22.363996 0,22.363996 h 7.433864 V 36.550123 c 0,-0.666749 0.04818,-1.334592 0.24524,-1.811936 0.536465,-1.335686 1.759385,-2.718451 3.812182,-2.718451 2.69108,0 3.766199,2.050608 3.766199,5.055903 v 11.965346 h 7.432768 z M 21.474379,23.623522 c 2.591451,0 4.206319,-1.718876 4.206319,-3.865828 -0.04817,-2.192935 -1.614868,-3.862544 -4.157051,-3.862544 -2.542184,0 -4.205224,1.668513 -4.205224,3.862544 0,2.146952 1.613772,3.865828 4.108879,3.865828 z m 12.087966,42.783581 c -18.139065,0 -32.84475754,-14.705693 -32.84475754,-32.844758 0,-18.140159 14.70569254,-32.84475754 32.84475754,-32.84475754 18.139065,0 32.844758,14.70459854 32.844758,32.84475754 0,18.139065 -14.705693,32.844758 -32.844758,32.844758 z M 25.191311,49.03989 V 26.675894 H 17.758543 V 49.03989 Z"
     style="clip-rule:evenodd;fill:#ffffff;fill-rule:evenodd;stroke-width:1.09483"
     id="path2" /></svg>
