<?xml version="1.0" encoding="UTF-8" standalone="no"?>
<svg
   xmlns:dc="http://purl.org/dc/elements/1.1/"
   xmlns:cc="http://creativecommons.org/ns#"
   xmlns:rdf="http://www.w3.org/1999/02/22-rdf-syntax-ns#"
   xmlns:svg="http://www.w3.org/2000/svg"
   xmlns="http://www.w3.org/2000/svg"
   xmlns:sodipodi="http://sodipodi.sourceforge.net/DTD/sodipodi-0.dtd"
   xmlns:inkscape="http://www.inkscape.org/namespaces/inkscape"
   inkscape:version="1.0 (4035a4fb49, 2020-05-01)"
   sodipodi:docname="mail.svg"
   id="svg8"
   version="1.1"
   width="67"
   viewBox="0 0 67 67"
   height="67">
  <metadata
     id="metadata14">
    <rdf:RDF>
      <cc:Work
         rdf:about="">
        <dc:format>image/svg+xml</dc:format>
        <dc:type
           rdf:resource="http://purl.org/dc/dcmitype/StillImage" />
        <dc:title></dc:title>
      </cc:Work>
    </rdf:RDF>
  </metadata>
  <defs
     id="defs12" />
  <sodipodi:namedview
     inkscape:current-layer="svg8"
     inkscape:window-maximized="1"
     inkscape:window-y="-9"
     inkscape:window-x="-9"
     inkscape:cy="82.302494"
     inkscape:cx="71.37495"
     inkscape:zoom="2.1262308"
     showgrid="false"
     id="namedview10"
     inkscape:window-height="1001"
     inkscape:window-width="1920"
     inkscape:pageshadow="2"
     inkscape:pageopacity="0"
     guidetolerance="10"
     gridtolerance="10"
     objecttolerance="10"
     borderopacity="1"
     bordercolor="#666666"
     pagecolor="#ffffff"
     inkscape:document-rotation="0" />
  <path
     d="M 33.384062,1.0567426 A 32.609677,32.609677 0 0 0 0.77295229,33.667853 32.609677,32.609677 0 0 0 33.384062,66.277046 32.609677,32.609677 0 0 0 65.993255,33.667853 32.609677,32.609677 0 0 0 33.384062,1.0567426 Z M 15.603843,21.908854 h 35.020364 c 1.324329,0 2.125812,1.040855 2.125812,2.380527 V 46.72915 c 0,1.209286 -0.896071,2.208162 -2.125812,2.208162 H 15.603843 c -1.231013,0 -2.125812,-0.987376 -2.125812,-2.208162 V 24.289381 c 1e-6,-1.314105 0.750351,-2.380527 2.125812,-2.380527 z m 1.953451,3.483651 c -0.522828,1e-6 -0.850326,0.311517 -0.850326,0.85224 0,0.510047 0.438779,0.699415 0.792871,0.907779 2.355927,1.385688 15.305337,9.705879 15.72718,9.771076 0.378382,0.05753 0.884482,-0.321529 1.145258,-0.497937 4.468976,-2.85319 8.980407,-5.851911 13.49412,-8.602837 0.718414,-0.43846 1.823219,-1.005395 1.823219,-1.578081 0,-0.540723 -0.328134,-0.85224 -0.852241,-0.85224 -0.327253,0 -12.211907,7.697217 -13.547743,8.551128 -0.654495,0.438461 -1.287489,0.802575 -1.918976,1.225695 L 31.378904,33.930227 C 30.60808,33.457253 17.880708,25.392505 17.557294,25.392505 Z"
     style="opacity:1;fill:#ffffff;stroke-width:0.947396"
     id="path872" />
  <path
     id="path837"
     style="opacity:1;fill:#ffffff;stroke-width:0.947396"
     d="M 33.384062,1.0567426 A 32.609677,32.609677 0 0 0 0.77295229,33.667853 32.609677,32.609677 0 0 0 33.384062,66.277046 32.609677,32.609677 0 0 0 65.993255,33.667853 32.609677,32.609677 0 0 0 33.384062,1.0567426 Z M 15.603843,21.908854 h 35.020364 c 1.324329,0 2.125812,1.040855 2.125812,2.380527 V 46.72915 c 0,1.209286 -0.896071,2.208162 -2.125812,2.208162 H 15.603843 c -1.231013,0 -2.125812,-0.987376 -2.125812,-2.208162 V 24.289381 c 1e-6,-1.314105 0.750351,-2.380527 2.125812,-2.380527 z m 1.953451,3.483651 c -0.522828,1e-6 -0.850326,0.311517 -0.850326,0.85224 0,0.510047 0.438779,0.699415 0.792871,0.907779 2.355927,1.385688 15.305337,9.705879 15.72718,9.771076 0.378382,0.05753 0.884482,-0.321529 1.145258,-0.497937 4.468976,-2.85319 8.980407,-5.851911 13.49412,-8.602837 0.718414,-0.43846 1.823219,-1.005395 1.823219,-1.578081 0,-0.540723 -0.328134,-0.85224 -0.852241,-0.85224 -0.327253,0 -12.211907,7.697217 -13.547743,8.551128 -0.654495,0.438461 -1.287489,0.802575 -1.918976,1.225695 L 31.378904,33.930227 C 30.60808,33.457253 17.880708,25.392505 17.557294,25.392505 Z" />
</svg>
